<svg width="52" height="52" viewBox="0 0 52 52" fill="none" xmlns="http://www.w3.org/2000/svg">
<path d="M51.8589 26.0005C51.8589 40.2843 40.2799 51.8637 25.9962 51.8637C11.7124 51.8637 0.133179 40.2843 0.133179 26.0005C0.133179 11.7168 11.7124 0.137634 25.9962 0.137634C40.2797 0.137634 51.8589 11.7168 51.8589 26.0005Z" fill="#C3EEEE"/>
<path fill-rule="evenodd" clip-rule="evenodd" d="M26.4884 15.0262C26.7862 14.4606 26.1021 13.7758 25.5417 14.071C25.0857 14.2545 24.97 14.9211 25.3249 15.2584C25.6598 15.6098 26.3155 15.4872 26.4884 15.0262ZM20.25 15.2759C20.2847 14.9011 19.8537 14.586 19.5133 14.7276C19.0394 14.8551 18.9868 15.609 19.4466 15.7889C19.7936 15.9823 20.2861 15.6828 20.25 15.2759ZM31.86 15.7998C31.328 15.7348 31.2438 14.8899 31.756 14.7198C32.1533 14.5241 32.5178 14.8911 32.5759 15.2715C32.4926 15.5963 32.2233 15.8937 31.86 15.7998ZM22.1785 18.1646C22.266 17.4968 21.4538 16.9552 20.8846 17.3189C20.3516 17.5942 20.2783 18.4156 20.762 18.7737C21.2623 19.2295 22.1489 18.8388 22.1785 18.1646ZM29.5742 17.7046C29.8281 17.0435 30.857 17.0235 31.1461 17.667C31.4317 18.1678 31.0804 18.7879 30.5713 18.9582C29.8971 19.0853 29.2567 18.3491 29.5742 17.7046ZM25.8572 17.8906C25.3226 17.9293 24.8102 18.3527 24.8157 18.9208C24.7853 19.3851 25.1136 19.7643 25.5036 19.9577C25.5428 19.9601 25.5826 19.9633 25.6226 19.9665L25.6226 19.9665C25.8429 19.9841 26.0717 20.0025 26.2699 19.8903C26.7821 19.6615 27.0338 18.975 26.7503 18.4764C26.5982 18.115 26.2118 17.9624 25.8572 17.8906ZM15.8506 19.749C16.3706 19.4262 17.072 20.0154 16.8752 20.5859C16.7668 21.0794 16.1101 21.2802 15.7347 20.9651C15.3339 20.6699 15.3974 19.9602 15.8506 19.749ZM36.218 20.3612C36.2706 19.7986 35.5426 19.4018 35.1015 19.7477C34.6488 20.0285 34.6981 20.778 35.1803 20.9969C35.6182 21.2611 36.2476 20.8742 36.218 20.3612ZM27.3362 20.7693C28.0641 20.5052 28.9288 20.8213 29.3437 21.4769C29.891 22.2783 29.5998 23.4988 28.7505 23.9587C27.8704 24.5026 26.5853 24.0415 26.2603 23.0488C25.8913 22.1601 26.4289 21.0479 27.3362 20.7693ZM25.3481 21.6281C24.9584 20.7944 23.8726 20.4717 23.0658 20.8564C22.2059 21.2443 21.8103 22.3886 22.2558 23.231C22.6531 24.1022 23.8113 24.4592 24.6322 23.9883C25.4521 23.5694 25.8067 22.4395 25.3481 21.6281ZM18.7885 22.3335C18.8499 21.8085 19.3402 21.4668 19.835 21.4315C20.368 21.4964 20.7938 21.9146 20.8518 22.4595C20.8169 22.999 20.4041 23.5263 19.8382 23.523C19.2155 23.5772 18.6696 22.9515 18.7885 22.3335ZM32.9198 22.4587C32.9482 21.7169 32.0606 21.1697 31.4213 21.5456C30.735 21.8724 30.6834 22.9536 31.3447 23.3375C31.9812 23.7985 32.9636 23.2446 32.9198 22.4587ZM21.3279 24.3155C22.0755 24.1078 22.9304 24.4637 23.2971 25.1579C23.6987 25.8566 23.5346 26.8272 22.9107 27.3397C22.1106 28.0913 20.635 27.7895 20.2092 26.7637C19.7199 25.8233 20.3143 24.5631 21.3279 24.3155ZM31.4002 25.0537C31.0095 24.3849 30.1556 24.1019 29.4288 24.3119C28.4076 24.5943 27.8668 25.9032 28.4042 26.8293C28.8475 27.7246 30.0955 28.0252 30.9011 27.4526C31.6702 26.9595 31.9168 25.8186 31.4002 25.0537ZM16.5186 25.1847C17.1644 24.9379 17.8803 25.6578 17.6187 26.3046C17.4589 26.8938 16.6368 27.1116 16.2121 26.6771C15.7152 26.2692 15.8992 25.3616 16.5186 25.1847ZM34.945 25.0739C34.3962 25.1037 34.0047 25.5824 34.0234 26.1229C34.1306 26.375 34.2608 26.6381 34.5148 26.7685C35.0566 27.0703 35.8228 26.6337 35.7823 25.9914C35.8173 25.505 35.3873 25.1446 34.945 25.0739ZM13.3433 25.5018C13.7318 25.3305 14.2124 25.6706 14.1237 26.1065C14.1029 26.6 13.3816 26.7897 13.1166 26.3774C12.8825 26.091 13.0227 25.6495 13.3433 25.5018ZM38.6623 25.7592C38.5539 25.4364 38.1149 25.2949 37.8413 25.4917C37.3861 25.737 37.5645 26.5861 38.1161 26.5353C38.509 26.5949 38.8461 26.1118 38.6623 25.7592ZM23.4379 27.8609C24.4603 27.5923 25.5593 28.4535 25.5658 29.5169C25.6325 30.5914 24.55 31.5442 23.5035 31.2961C22.6945 31.1645 22.0598 30.3774 22.086 29.5517C22.0838 28.7619 22.6738 28.0279 23.4379 27.8609ZM29.6393 29.5304C29.6558 28.4424 28.524 27.5658 27.4863 27.8588C26.8711 28.0132 26.3501 28.5254 26.2142 29.1553C25.945 30.1005 26.6565 31.1706 27.6208 31.2966C28.6455 31.5058 29.6941 30.585 29.6393 29.5304ZM19.6801 28.513C20.3982 28.3893 21.0714 29.1985 20.7802 29.8872C20.5678 30.6211 19.5104 30.8201 19.0429 30.2207C18.4946 29.645 18.9039 28.5925 19.6801 28.513ZM32.9314 29.5357C32.9806 28.8337 32.1947 28.2743 31.5544 28.5452C30.7805 28.7936 30.6514 29.9853 31.3606 30.3902C31.9868 30.8412 32.9571 30.3084 32.9314 29.5357ZM34.8731 31.908C34.6224 31.4359 35.0778 30.8102 35.5967 30.8976C35.8407 30.8934 36.0154 31.0767 36.1734 31.2423L36.201 31.2712L36.2069 31.3191C36.2405 31.5883 36.2789 31.8969 36.062 32.1003C35.7499 32.4994 35.0427 32.3855 34.8731 31.908ZM16.9221 31.7623C17.0311 31.1895 16.3332 30.7032 15.8482 31.0293C15.3863 31.2671 15.3698 32.0099 15.8164 32.2708C16.2324 32.5582 16.8641 32.2687 16.9221 31.7623ZM25.4301 32.0894C26.0649 31.8064 26.8738 32.3647 26.8136 33.0711C26.8607 33.8516 25.8603 34.3921 25.2395 33.9234C24.55 33.521 24.6649 32.337 25.4301 32.0894ZM22.209 33.9557C22.2582 33.3444 21.5325 32.848 20.9918 33.1354C20.6108 33.2792 20.4555 33.7037 20.4488 34.0849C20.5791 34.4346 20.8439 34.8024 21.2501 34.8112C21.7404 34.8854 22.2254 34.4576 22.209 33.9557ZM29.9813 33.1436C30.5374 32.7965 31.3277 33.295 31.2751 33.9488C31.2894 34.632 30.3962 35.0697 29.8785 34.6209C29.3772 34.2691 29.4384 33.4234 29.9813 33.1436ZM31.9894 36.1276C31.5877 36.2138 31.2965 36.6693 31.5439 37.0473C31.7978 37.4863 32.5389 37.3292 32.5859 36.8174C32.6538 36.4393 32.3123 36.1939 31.9894 36.1276ZM19.1354 36.7187C19.2339 36.4191 19.4725 36.1213 19.8217 36.1992C20.3307 36.2357 20.4818 37.0106 20.0363 37.2495C19.6357 37.5223 19.1709 37.1487 19.1354 36.7187ZM26.1621 36.6397C25.7877 36.4043 25.2197 36.6198 25.1222 37.0631C24.9441 37.5109 25.3718 38.0522 25.8458 37.9961C26.1009 38.0027 26.2979 37.8192 26.4511 37.6357C26.4809 37.5119 26.5113 37.388 26.5452 37.2643L26.5431 37.2564C26.4801 37.0205 26.4067 36.7458 26.1621 36.6397Z" fill="#4CCDCD"/>
</svg>
