<svg width="52" height="52" viewBox="0 0 52 52" fill="none" xmlns="http://www.w3.org/2000/svg">
<path d="M26 52C40.3594 52 52 40.3594 52 26C52 11.6406 40.3594 0 26 0C11.6406 0 0 11.6406 0 26C0 40.3594 11.6406 52 26 52Z" fill="#FBE7B7"/>
<path fill-rule="evenodd" clip-rule="evenodd" d="M21.3406 24.0845L26.0021 19.4252L30.6654 24.0883L33.3761 21.3757L26.0021 14L18.628 21.3739L21.3406 24.0845ZM14 26.0005L16.7117 23.2889L19.4234 26.0005L16.7117 28.7121L14 26.0005ZM26.0021 32.5766L21.3407 27.9153L18.6242 30.6241L18.628 30.6279L26.0021 37.9999L33.3762 30.6241L33.3781 30.6222L30.6654 27.9134L26.0021 32.5766ZM32.577 26.0012L35.2887 23.2896L38.0004 26.0012L35.2887 28.7128L32.577 26.0012ZM26.0024 23.2468L28.7529 25.9992H28.7548L28.7529 26.0011L26.0024 28.7535L23.2518 26.0049L23.248 25.9992L23.2518 25.9954L23.7333 25.5139L23.9683 25.2808L26.0024 23.2468Z" fill="#F3B726"/>
</svg>
