<svg width="52" height="52" viewBox="0 0 52 52" fill="none" xmlns="http://www.w3.org/2000/svg">
<path d="M51.22 32.29C47.7474 46.2187 33.6391 54.6947 19.7088 51.2221C5.78498 47.7495 -2.69183 33.6412 0.78161 19.7134C4.25261 5.78305 18.36 -2.69458 32.2863 0.778046C46.2158 4.25067 54.6918 18.3605 51.2192 32.29H51.22Z" fill="#FCDCB5"/>
<path fill-rule="evenodd" clip-rule="evenodd" d="M33.5767 23.844C33.9219 21.5324 32.1619 20.2898 29.7554 19.4608L30.536 16.3295L28.6295 15.8545L27.8694 18.9033C27.3689 18.7784 26.8543 18.6606 26.3429 18.5439L27.1083 15.475L25.2034 15L24.4222 18.1302C24.0074 18.0358 23.6003 17.9424 23.2051 17.8441L23.2072 17.8343L20.5786 17.178L20.0716 19.2138C20.0716 19.2138 21.4858 19.5379 21.4559 19.558C22.2279 19.7507 22.3679 20.2615 22.3441 20.6665L21.4548 24.2338C21.508 24.2473 21.577 24.2669 21.653 24.2973L21.4521 24.2473L20.2051 29.2445C20.1107 29.479 19.8713 29.8308 19.3316 29.6972C19.3506 29.7249 17.9462 29.3514 17.9462 29.3514L17 31.5338L19.4809 32.1521C19.761 32.2223 20.0376 32.2945 20.3112 32.3659L20.3115 32.3659C20.4886 32.4121 20.6645 32.458 20.8392 32.5028L20.0504 35.6705L21.9543 36.1455L22.736 33.012C23.2555 33.1532 23.7604 33.2835 24.2544 33.4062L23.476 36.525L25.382 37L26.1708 33.8388C29.421 34.4539 31.8655 34.2058 32.8932 31.2667C33.7222 28.8998 32.8525 27.5344 31.1424 26.6436C32.3878 26.3553 33.3259 25.5361 33.5761 23.844H33.5767ZM29.2212 29.9507C28.6801 32.1231 25.279 31.2242 23.7242 30.8133L23.7242 30.8133C23.585 30.7765 23.4606 30.7436 23.3544 30.7172L24.401 26.5213C24.5309 26.5537 24.6895 26.5893 24.8692 26.6297C26.4777 26.9906 29.774 27.7303 29.2217 29.9507H29.2212ZM25.1926 24.6828C26.4899 25.0289 29.3177 25.7833 29.8103 23.8099C30.3139 21.791 27.5642 21.1825 26.2212 20.8853C26.0703 20.8519 25.9371 20.8224 25.8283 20.7953L24.8793 24.6008C24.9691 24.6232 25.0745 24.6513 25.1926 24.6828Z" fill="#F69722"/>
</svg>
