<svg width="56" height="56" viewBox="0 0 56 56" fill="none" xmlns="http://www.w3.org/2000/svg">
<rect width="56" height="56" rx="28" fill="#1B77E4" fill-opacity="0.15"/>
<path d="M29.7488 29.7267C29.5878 29.7278 29.4583 29.8585 29.4583 30.0195C29.4583 30.1805 29.589 30.3112 29.75 30.31C29.911 30.31 30.0416 30.1793 30.0416 30.0183C30.0416 29.8573 29.911 29.7267 29.7488 29.7267" stroke="#1B77E4" stroke-linecap="round" stroke-linejoin="round"/>
<path d="M17.5 21.3302V21C17.5 19.0668 19.0668 17.5 21 17.5H35C36.9332 17.5 38.5 19.0668 38.5 21V31.5C38.5 33.4332 36.9332 35 35 35H33.8333" stroke="#1B77E4" stroke-linecap="round" stroke-linejoin="round"/>
<path d="M38.5 24.5H33.8334" stroke="#1B77E4" stroke-linecap="round" stroke-linejoin="round"/>
<path fill-rule="evenodd" clip-rule="evenodd" d="M29.5458 38.409C31.7392 38.9153 33.8333 37.2493 33.8333 34.9988V24.9515C33.8333 23.3217 32.7087 21.9077 31.1208 21.5413L20.3583 19.0575C18.8953 18.7192 17.5 19.8298 17.5 21.3302V32.844C17.5 34.4738 18.6247 35.8878 20.2125 36.2542L29.5458 38.409V38.409Z" stroke="#1B77E4" stroke-linecap="round" stroke-linejoin="round"/>
</svg>
