<svg width="20" height="20" viewBox="0 0 20 20" fill="none" xmlns="http://www.w3.org/2000/svg">
<g id="Group">
<path id="Path" d="M8.33331 17.5H4.99998C4.55791 17.5001 4.13392 17.3246 3.82133 17.012C3.50875 16.6994 3.33319 16.2754 3.33331 15.8333V7.08334C3.33357 6.39309 3.89306 5.8336 4.58331 5.83334H15.4166C16.1069 5.8336 16.6664 6.39309 16.6666 7.08334V9.16668" stroke="#1B77E4" stroke-width="1.5" stroke-linecap="round" stroke-linejoin="round"/>
<path id="Path_2" d="M12.9166 5.83334V5.00001C12.9166 3.38918 11.6108 2.08334 9.99998 2.08334V2.08334C8.38915 2.08334 7.08331 3.38918 7.08331 5.00001V5.00001V5.83334" stroke="#1B77E4" stroke-width="1.5" stroke-linecap="round" stroke-linejoin="round"/>
<path id="Path_3" fill-rule="evenodd" clip-rule="evenodd" d="M13.3943 11.23C13.5141 10.9871 13.7614 10.8333 14.0322 10.8333C14.3031 10.8333 14.5504 10.9871 14.6702 11.23L15.1906 12.285C15.2942 12.495 15.4945 12.6406 15.7262 12.6742L16.8902 12.8434C17.1581 12.8823 17.3807 13.07 17.4644 13.3274C17.5481 13.5849 17.4784 13.8676 17.2846 14.0566L16.4421 14.8783C16.2746 15.0417 16.1981 15.2771 16.2377 15.5078L16.4365 16.6668C16.4823 16.9337 16.3726 17.2034 16.1536 17.3626C15.9345 17.5217 15.6441 17.5427 15.4045 17.4168L14.3632 16.8695C14.156 16.7606 13.9085 16.7606 13.7013 16.8695L12.66 17.4168C12.4203 17.5427 12.1299 17.5217 11.9109 17.3626C11.6919 17.2034 11.5822 16.9337 11.628 16.6668L11.8268 15.5078C11.8664 15.2771 11.7899 15.0417 11.6224 14.8783L10.7799 14.0566C10.5861 13.8676 10.5163 13.5849 10.6 13.3274C10.6838 13.0699 10.9064 12.8822 11.1743 12.8433L12.3383 12.6742C12.57 12.6405 12.7703 12.4949 12.8739 12.2849L13.3943 11.23Z" stroke="#1B77E4" stroke-width="1.5" stroke-linecap="round" stroke-linejoin="round"/>
</g>
</svg>
