<svg width="56" height="56" viewBox="0 0 56 56" fill="none" xmlns="http://www.w3.org/2000/svg">
<rect width="56" height="56" rx="28" fill="#E4881B" fill-opacity="0.15"/>
<path d="M27.7582 24.7394L31.7414 20.7562" stroke="#E4881B" stroke-linecap="round" stroke-linejoin="round"/>
<path d="M27.5039 20.597C27.5041 20.5439 27.5472 20.501 27.6004 20.501C27.6535 20.5011 27.6965 20.5442 27.6965 20.5973C27.6965 20.6505 27.6535 20.6935 27.6004 20.6936C27.5472 20.6937 27.5041 20.6508 27.5039 20.5977V20.597" stroke="#E4881B" stroke-linecap="round" stroke-linejoin="round"/>
<path d="M23.3314 22.1642V20.1801C23.3314 18.0529 25.0558 16.3285 27.183 16.3285H32.3185C34.4457 16.3285 36.1701 18.0529 36.1701 20.1801V25.3156C36.1701 27.4427 34.4457 29.1672 32.3185 29.1672H31.5015" stroke="#E4881B" stroke-linecap="round" stroke-linejoin="round"/>
<path d="M31.9975 24.8987C31.9973 24.9518 31.9541 24.9947 31.901 24.9946C31.8479 24.9945 31.8049 24.9514 31.8049 24.8983C31.8049 24.8452 31.8479 24.8021 31.901 24.802C31.9541 24.8019 31.9973 24.8448 31.9975 24.898V24.8987" stroke="#E4881B" stroke-linecap="round" stroke-linejoin="round"/>
<path d="M36.17 32.6686V38.5044" stroke="#E4881B" stroke-linecap="round" stroke-linejoin="round"/>
<path d="M33.8357 35.0029L36.17 32.6686" stroke="#E4881B" stroke-linecap="round" stroke-linejoin="round"/>
<path d="M38.5043 35.0029L36.17 32.6686" stroke="#E4881B" stroke-linecap="round" stroke-linejoin="round"/>
<path d="M17.4956 28.7003V36.6369C17.4969 37.668 19.5858 38.5044 22.1642 38.5044C24.7426 38.5044 26.8315 37.668 26.8328 36.6369V28.7003" stroke="#E4881B" stroke-linecap="round" stroke-linejoin="round"/>
<path d="M26.8315 28.7003C26.8315 29.7314 24.7413 30.5677 22.1629 30.5677C19.5845 30.5677 17.4956 29.7314 17.4956 28.7003C17.4956 27.6679 19.5871 26.8329 22.1642 26.8329C24.7413 26.8329 26.8315 27.6692 26.8328 28.7003" stroke="#E4881B" stroke-linecap="round" stroke-linejoin="round"/>
<path d="M17.4962 32.6686C17.4962 33.6997 19.5851 34.5361 22.1635 34.5361C24.7419 34.5361 26.8321 33.6997 26.8321 32.6686" stroke="#E4881B" stroke-linecap="round" stroke-linejoin="round"/>
</svg>
