<svg width="52" height="52" viewBox="0 0 52 52" fill="none" xmlns="http://www.w3.org/2000/svg">
<path d="M51.8589 26.0005C51.8589 40.2843 40.2799 51.8636 25.9962 51.8636C11.7124 51.8636 0.133179 40.2843 0.133179 26.0005C0.133179 11.7168 11.7124 0.137619 25.9962 0.137619C40.2797 0.137619 51.8589 11.7168 51.8589 26.0005Z" fill="#BCC8F6"/>
<g opacity="0.8">
<path d="M25.7233 15L25.5764 15.4992V29.9836L25.7233 30.1302L32.4468 26.1559L25.7233 15Z" fill="#3559E4"/>
<path d="M25.7234 15L18.9999 26.1559L25.7234 30.1302V23.0999V15Z" fill="#3559E4"/>
<path d="M25.7233 32.3176L25.6405 32.4185V37.5782L25.7233 37.8199L32.4508 28.3454L25.7233 32.3176Z" fill="#3559E4"/>
<path d="M25.7234 37.8199V32.3176L18.9999 28.3454L25.7234 37.8199Z" fill="#3559E4"/>
<path d="M25.7233 30.1301L32.4467 26.1559L25.7233 23.0999V30.1301Z" fill="#3559E4"/>
<path d="M18.9999 26.1559L25.7233 30.1301V23.0999L18.9999 26.1559Z" fill="#3559E4"/>
</g>
</svg>
