<svg width="20" height="20" viewBox="0 0 20 20" fill="none" xmlns="http://www.w3.org/2000/svg">
<path fill-rule="evenodd" clip-rule="evenodd" d="M3.59167 5.43917L5.33333 3.15583C5.64833 2.7425 6.13833 2.5 6.65833 2.5H13.3417C13.8617 2.5 14.3517 2.7425 14.6667 3.15583L16.4083 5.43917C16.63 5.72917 16.75 6.085 16.75 6.45V15.8333C16.75 16.7542 16.0042 17.5 15.0833 17.5H4.91667C3.99583 17.5 3.25 16.7542 3.25 15.8333V6.45C3.25 6.085 3.37 5.73 3.59167 5.43917Z" stroke="black" stroke-width="1.5" stroke-linecap="round" stroke-linejoin="round"/>
<path d="M13.3334 8.33333C13.3334 10.1742 11.8409 11.6667 10 11.6667C8.15919 11.6667 6.66669 10.1742 6.66669 8.33333" stroke="black" stroke-width="1.5" stroke-linecap="round" stroke-linejoin="round"/>
<path d="M3.35004 5.89152H16.65" stroke="black" stroke-width="1.5" stroke-linecap="round" stroke-linejoin="round"/>
</svg>
