<svg width="22" height="22" viewBox="0 0 22 22" fill="none" xmlns="http://www.w3.org/2000/svg">
<path fill-rule="evenodd" clip-rule="evenodd" d="M11.6671 3.49715C12.0188 3.49715 12.3327 3.71801 12.4516 4.04905L12.8751 5.22871C12.9423 5.41421 13.0728 5.57008 13.2436 5.66889L14.4999 6.39419C14.6705 6.49263 14.8705 6.52748 15.0643 6.49257L16.2982 6.26997C16.6446 6.20697 16.9933 6.36847 17.1694 6.67347L17.8363 7.82395C18.0128 8.12813 17.9795 8.51035 17.7529 8.77935L16.9434 9.73642C16.8159 9.88691 16.7459 10.0777 16.7458 10.275V11.7256C16.7459 11.9228 16.8159 12.1136 16.9434 12.2641L17.7529 13.2212C17.9795 13.4902 18.0128 13.8724 17.8363 14.1766L17.1694 15.3271C16.9934 15.6318 16.6452 15.7932 16.299 15.7306L15.0651 15.508C14.8713 15.4731 14.6714 15.5079 14.5007 15.6064L13.2444 16.3317C13.0736 16.4305 12.9431 16.5863 12.8759 16.7718L12.4524 17.9515C12.3334 18.2828 12.0191 18.5037 11.6671 18.5034H10.3332C9.98144 18.5034 9.66757 18.2825 9.54868 17.9515L9.12517 16.7718C9.05797 16.5866 8.92785 16.4308 8.75752 16.3317L7.50033 15.6064C7.32972 15.5079 7.12978 15.4731 6.93593 15.508L5.70208 15.7306C5.35561 15.7936 5.00692 15.6321 4.83089 15.3271L4.16394 14.1766C3.98744 13.8724 4.02079 13.4902 4.24731 13.2212L5.05681 12.2641C5.18431 12.1136 5.25432 11.9228 5.2544 11.7256V10.275C5.25432 10.0777 5.18431 9.88691 5.05681 9.73642L4.25565 8.77935C4.02913 8.51035 3.99578 8.12813 4.17228 7.82395L4.83922 6.67347C5.01514 6.3688 5.36339 6.20735 5.70958 6.26997L6.94343 6.49257C7.13728 6.52748 7.33723 6.49263 7.50783 6.39419L8.76502 5.66889C8.93536 5.56976 9.06547 5.41397 9.13268 5.22871L9.55619 4.04905C9.67413 3.72058 9.98419 3.50035 10.3332 3.49715H11.6671Z" stroke="black" stroke-width="1.5" stroke-linecap="round" stroke-linejoin="round"/>
<circle cx="11.0001" cy="11.0001" r="2.29262" stroke="black" stroke-width="1.5" stroke-linecap="round" stroke-linejoin="round"/>
</svg>
