<svg xmlns="http://www.w3.org/2000/svg" fill="none" viewBox="0 0 24 24" width="256" height="256">
	<path fill="#0072ff" d="M12 24C18.6274 24 24 18.6274 24 12C24 5.37258 18.6274 0 12 0C5.37258 0 0 5.37258 0 12C0 18.6274 5.37258 24 12 24Z" opacity=".2" class="color0072FF svgShape">
	</path>
	<path fill="#0072ff" fill-rule="evenodd" d="M13.9343 6.77508L8.95202 17.5385H8.76405C8.30135 17.5385 7.8593 17.4498 7.45238 17.293L12.4657 6.46154C12.9883 6.4636 13.484 6.57499 13.9343 6.77508ZM7.22516 17.1981C5.95893 16.6144 5.0769 15.3355 5.0769 13.8462C5.0769 11.8061 6.72734 10.1538 8.76405 10.1538C8.76405 8.20249 10.2761 6.61006 12.1889 6.47392L7.22516 17.1981ZM14.6077 17.5385H13.3188L16.7146 10.2013C17.1133 10.2652 17.4893 10.389 17.8342 10.5685L14.6077 17.5385ZM11.3254 17.5385H12.7218L16.1404 10.1538C16.1404 9.46283 15.9483 8.81925 15.6178 8.26644L11.3254 17.5385ZM19.6003 12.5817C19.7449 12.9777 19.8275 13.4027 19.8275 13.8482C19.8275 15.4365 18.8216 16.7897 17.4108 17.3095L19.6003 12.5817ZM16.4998 17.5199L19.1727 11.7483C18.9538 11.4286 18.6832 11.1502 18.3775 10.915L15.3121 17.5385H16.1404C16.2602 17.5385 16.3821 17.5323 16.4998 17.5199ZM9.3321 17.5385H10.8379L15.3265 7.84151C15.0291 7.47228 14.6614 7.16081 14.2442 6.92772L9.3321 17.5385Z" clip-rule="evenodd" class="color0072FF svgShape">
	</path>
	<path fill="#0072ff" d="M12 24C18.6274 24 24 18.6274 24 12C24 5.37258 18.6274 0 12 0C5.37258 0 0 5.37258 0 12C0 18.6274 5.37258 24 12 24Z" opacity=".2" class="color0072FF svgShape">
	</path>
	<path fill="#0072ff" fill-rule="evenodd" d="M13.9343 6.77508L8.95202 17.5385H8.76405C8.30135 17.5385 7.8593 17.4498 7.45238 17.293L12.4657 6.46154C12.9883 6.4636 13.484 6.57499 13.9343 6.77508ZM7.22516 17.1981C5.95893 16.6144 5.0769 15.3355 5.0769 13.8462C5.0769 11.8061 6.72734 10.1538 8.76405 10.1538C8.76405 8.20249 10.2761 6.61006 12.1889 6.47392L7.22516 17.1981ZM14.6077 17.5385H13.3188L16.7146 10.2013C17.1133 10.2652 17.4893 10.389 17.8342 10.5685L14.6077 17.5385ZM11.3254 17.5385H12.7218L16.1404 10.1538C16.1404 9.46283 15.9483 8.81925 15.6178 8.26644L11.3254 17.5385ZM19.6003 12.5817C19.7449 12.9777 19.8275 13.4027 19.8275 13.8482C19.8275 15.4365 18.8216 16.7897 17.4108 17.3095L19.6003 12.5817ZM16.4998 17.5199L19.1727 11.7483C18.9538 11.4286 18.6832 11.1502 18.3775 10.915L15.3121 17.5385H16.1404C16.2602 17.5385 16.3821 17.5323 16.4998 17.5199ZM9.3321 17.5385H10.8379L15.3265 7.84151C15.0291 7.47228 14.6614 7.16081 14.2442 6.92772L9.3321 17.5385Z" clip-rule="evenodd" class="color0072FF svgShape">
	</path>
</svg>
