<svg width="20" height="20" viewBox="0 0 20 20" fill="none" xmlns="http://www.w3.org/2000/svg">
<path fill-rule="evenodd" clip-rule="evenodd" d="M15.8334 14.1667H15C14.54 14.1667 14.1667 13.7933 14.1667 13.3333V9.16667C14.1667 8.70667 14.54 8.33334 15 8.33334H15.8334C16.7542 8.33334 17.5 9.07917 17.5 10V12.5C17.5 13.4208 16.7542 14.1667 15.8334 14.1667Z" stroke="black" stroke-width="1.5" stroke-linecap="round" stroke-linejoin="round"/>
<path fill-rule="evenodd" clip-rule="evenodd" d="M5 14.1667H4.16667C3.24583 14.1667 2.5 13.4208 2.5 12.5V10C2.5 9.07917 3.24583 8.33334 4.16667 8.33334H5C5.46 8.33334 5.83333 8.70667 5.83333 9.16667V13.3333C5.83333 13.7933 5.46 14.1667 5 14.1667Z" stroke="black" stroke-width="1.5" stroke-linecap="round" stroke-linejoin="round"/>
<path d="M15.4166 8.33333V7.91667C15.4166 4.925 12.9916 2.5 9.99998 2.5V2.5C7.00831 2.5 4.58331 4.925 4.58331 7.91667V8.33333" stroke="black" stroke-width="1.5" stroke-linecap="round" stroke-linejoin="round"/>
<path fill-rule="evenodd" clip-rule="evenodd" d="M10.5208 17.7083H9.47917C8.90417 17.7083 8.4375 17.2417 8.4375 16.6667V16.6667C8.4375 16.0917 8.90417 15.625 9.47917 15.625H10.5208C11.0958 15.625 11.5625 16.0917 11.5625 16.6667V16.6667C11.5625 17.2417 11.0958 17.7083 10.5208 17.7083Z" stroke="black" stroke-width="1.5" stroke-linecap="round" stroke-linejoin="round"/>
<path d="M11.5625 16.6667H13.3333C14.2542 16.6667 15 15.9208 15 15V14.1667" stroke="black" stroke-width="1.5" stroke-linecap="round" stroke-linejoin="round"/>
</svg>
