<svg width="52" height="52" viewBox="0 0 52 52" fill="none" xmlns="http://www.w3.org/2000/svg">
<path d="M26 52C40.3594 52 52 40.3594 52 26C52 11.6406 40.3594 0 26 0C11.6406 0 0 11.6406 0 26C0 40.3594 11.6406 52 26 52Z" fill="#BAE3F8"/>
<path d="M28.8819 15.5919C27.3902 16.4411 26.507 17.9746 26.507 19.5917C26.507 20.4409 26.8589 21.2967 27.2994 22.0602C27.6513 22.7422 27.8238 23.9325 26.5956 24.5287C25.7192 25.0369 24.5726 24.6981 24.0482 23.8467C23.5236 23.1647 22.9084 22.4827 22.1159 21.9744C20.6243 21.1252 18.8646 21.1252 17.3728 21.9744C15.881 22.8236 15 24.361 15 25.9785C15 27.5961 15.8764 29.1291 17.3724 29.9806C18.8641 30.8298 20.6238 30.8298 22.1156 29.9806C22.908 29.5538 23.5232 28.8762 23.9593 28.1082C24.3112 27.512 25.2784 26.7442 26.5067 27.4262C27.3832 27.9344 27.6465 29.0456 27.2105 29.8948C26.7701 30.6626 26.5067 31.5141 26.5067 32.3633C26.5067 33.9826 27.3832 35.5138 28.8817 36.3631C30.3734 37.2123 32.133 37.2123 33.6248 36.3631C35.1166 35.5139 36 33.9804 36 32.3633C36 30.7462 35.1213 29.2128 33.6251 28.3612C32.8326 27.9344 31.9539 27.765 30.9889 27.765C30.1965 27.765 29.1453 27.2568 29.1453 25.9785C29.1453 24.9555 29.9377 24.192 30.9889 24.192C31.8654 24.192 32.8326 24.0226 33.6251 23.5958C35.1167 22.7466 36 21.2131 36 19.5961C36 17.9791 35.1213 16.4456 33.6251 15.5963C32.9213 15.1695 32.0447 15.0001 31.2526 15.0001C30.4647 14.9957 29.5815 15.1695 28.8822 15.5919" fill="#2FAAEA"/>
</svg>
